#N canvas 488 -695 557 498 12;
#X obj 130 217 ctlin;
#X obj 130 301 route 1 2, f 22;
#X obj 130 245 swap;
#X msg 10 271 1 \$1;
#X msg 50 271 2 \$1;
#X obj 23 114 hsl 162 19 0 127 0 0 empty empty empty -2 -10 0 12 #fcfcfc #000000 #000000 0 1;
#X obj 23 142 hsl 162 19 0 127 0 0 empty empty empty -2 -10 0 12 #fcfcfc #000000 #000000 0 1;
#X obj 105 436 dac~ 1 2;
#X floatatom 223 379 10 0 0 0 - - - 0;
#N canvas -102 -744 450 353 freqctrl 0;
#X floatatom 104 212 3 0 0 0 - - - 0;
#X obj 104 264 expr pow(2.0 \, $f1);
#X obj 24 123 expr 3.322+(10.678*($f1+1)/128.0), f 10;
#X obj 104 123 expr 0.109375*(($f1-64)/64), f 11;
#X obj 104 190 t b f;
#X obj 104 239 +, f 5;
#X obj 24 95 inlet;
#X obj 104 91 inlet;
#X obj 104 287 outlet;
#X text 3 1 Main Calculation ―――――――――――――――― This subpatch is to perform the main calculation to translate from a pair of values between 0 an 127 to a single frequency value.;
#X connect 0 0 5 0;
#X connect 1 0 8 0;
#X connect 2 0 0 0;
#X connect 3 0 4 0;
#X connect 4 0 0 0;
#X connect 4 1 5 1;
#X connect 5 0 1 0;
#X connect 6 0 2 0;
#X connect 7 0 3 0;
#X restore 130 329 pd freqctrl;
#X text 89 191 Listen for MIDI ctrl messages;
#X text 199 138 Fine Frequency Ctrl;
#X obj 130 273 pack f f;
#X obj 373 96 vradio 15 1 0 6 empty empty empty 0 -8 0 10 #dcdcdc #000000 #000000 0;
#X floatatom 373 196 3 0 0 0 - - - 0;
#N canvas 150 188 662 300 oscswitch 1;
#X obj 25 7 inlet;
#X obj 58 51 osc~;
#X obj 144 59 else/tri~;
#X obj 269 59 else/square~;
#X obj 394 59 else/pink~;
#X obj 20 81 else/xselect~ 5 1000 1, f 72;
#X obj 520 59 noise~;
#X obj 19 136 outlet~;
#X obj 120 28 t f f f;
#X obj 122 6 inlet;
#X connect 0 0 8 0;
#X connect 1 0 5 0;
#X connect 2 0 5 1;
#X connect 3 0 5 2;
#X connect 4 0 5 3;
#X connect 5 0 7 0;
#X connect 6 0 5 4;
#X connect 8 0 1 0;
#X connect 8 1 2 0;
#X connect 8 2 3 0;
#X connect 9 0 5 0;
#X restore 129 378 pd oscswitch;
#X text 390 124 2: Triangle;
#X text 390 156 4: Pink Noise;
#X text 390 172 5: White Noise;
#X obj 227 407 hsl 162 19 0 1 0 0 empty empty empty -2 -10 0 12 #fcfcfc #000000 #000000 0 1;
#X obj 129 410 *~ 0.707;
#X floatatom 224 433 10 0 0 0 - - - 0;
#X text 294 378 Current Frequency;
#X text 300 434 Current Gain;
#X text 394 407 Gain Ctrl;
#X text 10 4 Oscillator Control ――――――――――――――――― Control Oscillator type for measurements. Uses the else library for oscillators;
#X obj 454 364 loadbang;
#X msg 454 388 0.707;
#X text 192 113 Broad Frequency Ctrl;
#X text 340 67 Waveform Select;
#X text 390 92 0: none;
#X text 390 108 1: Sine;
#X text 390 140 3: Square;
#X connect 0 0 2 0;
#X connect 0 1 2 1;
#X connect 1 0 9 0;
#X connect 1 1 9 1;
#X connect 2 0 12 0;
#X connect 2 1 12 1;
#X connect 3 0 1 0;
#X connect 4 0 1 0;
#X connect 5 0 3 0;
#X connect 6 0 4 0;
#X connect 9 0 8 0;
#X connect 9 0 15 0;
#X connect 12 0 1 0;
#X connect 13 0 14 0;
#X connect 14 0 15 1;
#X connect 15 0 20 0;
#X connect 19 0 20 1;
#X connect 19 0 21 0;
#X connect 20 0 7 1;
#X connect 20 0 7 0;
#X connect 26 0 27 0;
#X connect 27 0 19 0;
