#N canvas 1095 -695 510 300 12;
#X msg 7 70 start;
#X msg 55 70 stop;
#X msg 93 70 open;
#X obj 93 106 else/play.file~;
#X obj 264 64 tgl 19 0 empty empty empty 0 -10 0 12 #fcfcfc #000000 #000000 0 1;
#X obj 76 162 dac~ 1 2;
#X text 128 71 <= opens dialog;
#X text 207 104 <= or click to open;
#X obj 191 126 hsl 162 19 0 1 0 0 empty empty empty -2 -10 0 12 #fcfcfc #000000 #000000 0 1;
#X obj 93 129 *~ 0.707;
#X floatatom 188 152 10 0 0 0 - - - 0;
#X text 264 153 Current Gain;
#X text 358 126 Gain Ctrl;
#X obj 418 83 loadbang;
#X msg 418 107 0.707;
#X text 10 4 File Playback: Uses the else library for a very simple sound file playback interface. **Use only Mono .wav files**;
#X connect 0 0 3 0;
#X connect 1 0 3 0;
#X connect 2 0 3 0;
#X connect 3 0 9 0;
#X connect 4 0 3 0;
#X connect 8 0 9 1;
#X connect 8 0 10 0;
#X connect 9 0 5 0;
#X connect 9 0 5 1;
#X connect 13 0 14 0;
#X connect 14 0 8 0;
