#N canvas 535 70 450 701 12;
#X obj 29 512 osc~;
#X obj 66 369 line~;
#X obj 24 539 dac~;
#X msg 212 370 \; pd dsp \$1;
#X text 244 334 DSP on/off;
#X obj 203 331 tgl 19 0 empty empty empty 0 -10 0 12 #fcfcfc #000000 #000000 0 1;
#X obj 80 310 del 10000;
#X obj 80 286 t b 1;
#X floatatom 80 333 5 0 0 0 - - - 0;
#X obj 69 226 log 2;
#X msg 69 200 20000;
#X obj 161 475 snapshot~;
#X floatatom 126 523 28 0 0 0 - - - 0;
#X obj 228 444 metro 100;
#X obj 228 417 loadbang;
#X obj 66 394 expr~ pow(2 \, $v1);
#X msg 69 255 0 \, \$1 10000;
#X connect 0 0 2 0;
#X connect 0 0 2 1;
#X connect 1 0 15 0;
#X connect 5 0 3 0;
#X connect 6 0 8 0;
#X connect 7 0 6 0;
#X connect 7 1 5 0;
#X connect 8 0 5 0;
#X connect 9 0 16 0;
#X connect 10 0 9 0;
#X connect 11 0 12 0;
#X connect 13 0 11 0;
#X connect 14 0 13 0;
#X connect 15 0 0 0;
#X connect 15 0 11 0;
#X connect 16 0 7 0;
#X connect 16 0 1 0;
