#N canvas 16 -1229 2400 1236 12;
#X obj 697 727 dac~, f 7;
#X floatatom 308 417 10 0 0 0 - - - 0;
#X obj 696 683 *~, f 7;
#X floatatom 892 666 5 0 0 0 - - - 0;
#X obj 1037 647 vsl 19 162 0 1 0 0 vol_control empty empty 0 -9 0 12 #fcfcfc #000000 #000000 0 1;
#X obj 892 645 receive vol_control;
#X msg 1138 202 open SWEEP.wav;
#X obj 1138 431 readsf~;
#X obj 1250 201 tgl 19 0 empty empty empty 0 -10 0 12 #fcfcfc #000000 #000000 0 1;
#X obj 824 439 osc~;
#X obj 824 364 line~;
#X obj 824 211 tgl 19 1 empty empty empty 0 -10 0 12 #fcfcfc #000000 #000000 1 1;
#X obj 824 250 select 1;
#X text 307 182 FREQUENCY OSCILLATOR;
#X text 825 182 EXP SINE SWEEP;
#X text 1137 175 AUDIO FILE;
#X obj 308 490 osc~;
#X obj 995 229 select 0;
#X msg 824 325 0 \, 1 1.2e+06, f 16;
#X text 444 10 READ ME: Use Cmd+E to toggle between edit and performance mode. Use edit mode to connect inputs/outputs or input different values in each object by hand. Use performance mode to adjust gain level or change oscillation frequency. Remember to activate your audio by clicking on the DSP box in the main PD menu. To select your MIDI cntroller \, from PD main menu go to "Media" -> MIDI settings and select your device., f 91;
#X floatatom 595 289 5 0 0 0 - - - 0;
#X obj 598 260 hsl 162 19 20 20000 0 0 empty empty empty -2 -10 0 12 #fcfcfc #000000 #000000 0 1;
#X obj 418 214 notein;
#X floatatom 418 248 5 0 0 0 - - - 0;
#X obj 418 366 mtof;
#X text 567 182 NOISE GENERATOR;
#X msg 995 345 0;
#X obj 824 403 expr~ 100 * pow(5000/100 \, $v1) * ($v1 > 0);
#N canvas 64 64 997 415 freqctrl 0;
#X floatatom 104 212 3 0 0 0 - - - 0;
#X obj 104 264 expr pow(2.0 \, $f1);
#X obj 24 139 expr 3.322+(10.678*($f1+1)/128.0), f 38;
#X obj 384 131 expr 0.109375*(($f1-64)/64), f 40;
#X obj 104 190 t b f;
#X obj 104 239 +, f 5;
#X obj 24 95 inlet;
#X obj 104 91 inlet;
#X obj 104 287 outlet;
#X text 3 1 Main Calculation ―――――――――――――――― This subpatch is to perform the main calculation to translate from a pair of values between 0 an 127 to a single frequency value.;
#X connect 0 0 5 0;
#X connect 1 0 8 0;
#X connect 2 0 0 0;
#X connect 3 0 4 0;
#X connect 4 0 0 0;
#X connect 4 1 5 1;
#X connect 5 0 1 0;
#X connect 6 0 2 0;
#X connect 7 0 3 0;
#X restore 308 350 pd freqctrl;
#X obj 308 214 ctlin;
#X obj 308 257 swap;
#X obj 308 282 pack f f;
#X obj 61 202 hsl 162 19 0 127 0 0 empty empty empty -2 -10 0 12 #fcfcfc #000000 #000000 0 1;
#X obj 106 259 hsl 162 19 0 127 0 0 empty empty empty -2 -10 0 12 #fcfcfc #000000 #000000 0 1;
#X obj 568 212 noise~;
#X text 593 242 Cutoff frequency;
#X obj 457 702 sigmund~ -npeak 1 peaks;
#X obj 457 761 nbx 5 17 -1e+37 1e+37 0 0 empty empty empty 0 -10 0 12 #fcfcfc #000000 #000000 0 256;
#X text 456 683 READ FREQUENCY VALUE;
#X text 529 763 Freq in Hz.;
#X obj 457 731 route 0;
#X obj 307 131 tgl 19 0 empty empty empty 0 -10 0 12 #fcfcfc #000000 #000000 0 1;
#X obj 308 533 *~;
#X obj 567 131 tgl 19 0 empty empty empty 0 -10 0 12 #fcfcfc #000000 #000000 0 1;
#X obj 571 533 *~;
#X obj 825 131 tgl 19 0 empty empty empty 0 -10 0 12 #fcfcfc #000000 #000000 0 1;
#X obj 1137 124 tgl 19 0 empty empty empty 0 -10 0 12 #fcfcfc #000000 #000000 0 1;
#X obj 822 533 *~;
#X obj 1137 526 *~;
#X obj 825 157 send sweep;
#X obj 840 515 receive sweep;
#X obj 307 157 send osc;
#X obj 326 515 receive osc;
#X obj 567 157 send noise;
#X obj 587 514 receive noise;
#X obj 1137 150 send audio;
#X obj 1163 509 receive audio;
#X text 850 210 double click this box reset the sweep;
#X msg 58 297 1 \$1;
#X msg 103 297 2 \$1;
#X obj 308 316 route 1 2;
#X floatatom 343 233 5 0 0 0 - - - 0;
#X obj 569 382 lop~;
#X text 336 128 on/off;
#X text 594 130 on/off;
#X text 852 130 on/off;
#X text 1164 123 on/off;
#X text 919 385 set max/min freq;
#X text 59 179 Freq control (with cursor);
#X text 78 233 Fine tuning freq. (with cursor);
#X text 217 417 Freq in Hz.;
#X text 976 627 SET OUTPUT GAIN LEVEL;
#X text 829 277 generate ramp values from 0 to 1 over 20 mins;
#X text 1282 194 click on the open button to get the audio file \, then on the box on the right to play/stop it.;
#X connect 1 0 16 0;
#X connect 2 0 0 0;
#X connect 2 0 0 1;
#X connect 2 0 36 0;
#X connect 3 0 2 1;
#X connect 5 0 3 0;
#X connect 6 0 7 0;
#X connect 7 0 48 0;
#X connect 8 0 7 0;
#X connect 9 0 47 0;
#X connect 10 0 27 0;
#X connect 11 0 12 0;
#X connect 11 0 17 0;
#X connect 12 0 18 0;
#X connect 16 0 42 0;
#X connect 17 0 26 0;
#X connect 18 0 10 0;
#X connect 20 0 62 1;
#X connect 21 0 20 0;
#X connect 22 0 23 0;
#X connect 23 0 24 0;
#X connect 24 0 1 0;
#X connect 26 0 10 0;
#X connect 27 0 9 0;
#X connect 28 0 1 0;
#X connect 29 0 30 0;
#X connect 29 1 30 1;
#X connect 29 1 61 0;
#X connect 30 0 31 0;
#X connect 30 1 31 1;
#X connect 31 0 60 0;
#X connect 32 0 58 0;
#X connect 33 0 59 0;
#X connect 34 0 62 0;
#X connect 36 0 40 0;
#X connect 40 0 37 0;
#X connect 41 0 51 0;
#X connect 42 0 2 0;
#X connect 43 0 53 0;
#X connect 44 0 2 0;
#X connect 45 0 49 0;
#X connect 46 0 55 0;
#X connect 47 0 2 0;
#X connect 48 0 2 0;
#X connect 50 0 47 1;
#X connect 52 0 42 1;
#X connect 54 0 44 1;
#X connect 56 0 48 1;
#X connect 58 0 60 0;
#X connect 59 0 60 0;
#X connect 60 0 28 0;
#X connect 60 1 28 1;
#X connect 62 0 44 0;
